<svg width="30" height="30" viewBox="0 0 30 30" fill="none" xmlns="http://www.w3.org/2000/svg">
<path d="M14.9399 22.1325C14.6934 22.1333 14.4493 22.0854 14.2214 21.9914C13.9936 21.8975 13.7866 21.7593 13.6124 21.585L2.3624 10.335C2.01032 9.98292 1.81253 9.5054 1.81253 9.0075C1.81253 8.50959 2.01032 8.03207 2.3624 7.68C2.71447 7.32792 3.19199 7.13013 3.6899 7.13013C4.18781 7.13013 4.66532 7.32792 5.0174 7.68L14.9399 17.61L24.8624 7.68C25.2145 7.32792 25.692 7.13013 26.1899 7.13013C26.6878 7.13013 27.1653 7.32792 27.5174 7.68C27.8695 8.03207 28.0673 8.50959 28.0673 9.0075C28.0673 9.5054 27.8695 9.98292 27.5174 10.335L16.2674 21.585C16.0932 21.7593 15.8862 21.8975 15.6584 21.9914C15.4305 22.0854 15.1864 22.1333 14.9399 22.1325Z" fill="#212123"/>
</svg>
