<svg width="20" height="20" viewBox="0 0 20 20" fill="none" xmlns="http://www.w3.org/2000/svg">
<g clip-path="url(#clip0)">
<path d="M19.6358 3.65025L16.3508 0.365254C16.1165 0.131679 15.7991 0.000518799 15.4683 0.000518799C15.1374 0.000518799 14.8201 0.131679 14.5858 0.365254L1.36577 13.5853C1.2003 13.7493 1.08571 13.9577 1.03577 14.1853L0.0357737 18.4653C-0.0081396 18.6486 -0.00984526 18.8395 0.0307854 19.0236C0.071416 19.2077 0.153322 19.3801 0.270324 19.528C0.387327 19.6758 0.53637 19.7951 0.706211 19.8769C0.876052 19.9587 1.06226 20.0009 1.25077 20.0003C1.34689 20.001 1.44269 19.9892 1.53577 19.9653L5.81577 18.9653C6.04338 18.9153 6.25172 18.8007 6.41577 18.6353L19.6358 5.41525C19.8694 5.18095 20.0005 4.8636 20.0005 4.53275C20.0005 4.20191 19.8694 3.88456 19.6358 3.65025ZM15.4658 3.00025L16.9658 4.50025L15.7508 5.76525L14.2508 4.26525L15.4658 3.00025ZM4.90077 16.6153L2.90077 17.0753L3.36077 15.1003L12.4658 6.00025L13.9658 7.50025L4.90077 16.6153Z" fill="#4F66EE"/>
</g>
<defs>
<clipPath id="clip0">
<rect width="20" height="20" fill="white"/>
</clipPath>
</defs>
</svg>
